<svg xmlns="http://www.w3.org/2000/svg" xmlns:xlink="http://www.w3.org/1999/xlink" viewBox="0 0 256 256"><defs><linearGradient id="a" x1="80.5" x2="90.63" y1="60.66" y2="60.66" gradientUnits="userSpaceOnUse"><stop offset="0" stop-color="#ffef26"/><stop offset="0" stop-color="#ffea21"/><stop offset="0" stop-color="#fed70f"/><stop offset="0" stop-color="#fdcc04"/><stop offset="0" stop-color="#fdc800"/><stop offset="0" stop-color="#e95f32"/><stop offset=".9" stop-color="#f29531"/><stop offset="1" stop-color="#f18f34"/></linearGradient><linearGradient xlink:href="#a" id="c" x1="233.56" x2="335.82" y1="373.28" y2="373.28" gradientTransform="matrix(2.26276 0 0 2.24764 -516.229 -711.026)"/><linearGradient xlink:href="#a" id="b" x1="80.5" x2="90.63" y1="60.66" y2="60.66" gradientTransform="matrix(2.26276 0 0 2.24764 -91.465 -.025)" gradientUnits="userSpaceOnUse"/></defs><path fill="url(#b)" d="m90.686 178.527 22.921-11.35V107.3l-22.92-13.193Z"/><path fill="url(#c)" d="M112.817 4.02 27.575 52.907A30.48 30.275 0 0 0 12.35 79.113v97.685a30.502 30.298 0 0 0 15.228 26.206l85.239 48.932a30.388 30.186 0 0 0 30.455 0l85.219-48.864a30.48 30.275 0 0 0 15.158-26.274V79.113a30.457 30.253 0 0 0-15.248-26.206L143.18 4.02a30.502 30.298 0 0 0-30.365 0zM216.9 185.79l-50.591 28.993v-77.384L143.41 124.27v103.66l-9.21 5.304a12.037 11.958 0 0 1-12.036 0l-82.953-47.45a12.037 11.958 0 0 1-6.018-10.36V80.529a11.992 11.913 0 0 1 6.018-10.339L68.22 53.556l104.63 61.407v26.296l22.921-13.148v-26.294L91.14 40.41l30.727-17.666a12.037 11.958 0 0 1 12.036 0l82.729 47.448a12.037 11.958 0 0 1 6.018 10.338v94.898a12.081 12.003 0 0 1-5.948 10.361z"/></svg>